<svg width="24" height="24" viewBox="0 0 24 24" fill="none" xmlns="http://www.w3.org/2000/svg">
<path d="M4.92969 22H19.0703C20.6858 22 22 20.6858 22 19.0703V4.92969C22 3.31424 20.6858 2 19.0703 2H4.92969C3.31424 2 2 3.31424 2 4.92969V19.0703C2 20.6858 3.31424 22 4.92969 22ZM3.17188 4.92969C3.17188 3.96045 3.96045 3.17188 4.92969 3.17188H19.0703C20.0396 3.17188 20.8281 3.96045 20.8281 4.92969V19.0703C20.8281 20.0396 20.0396 20.8281 19.0703 20.8281H4.92969C3.96045 20.8281 3.17188 20.0396 3.17188 19.0703V4.92969Z" fill="black"/>
<path d="M12 17.2734C14.9077 17.2734 17.2734 14.9077 17.2734 12C17.2734 9.09229 14.9077 6.72656 12 6.72656C9.09229 6.72656 6.72656 9.09229 6.72656 12C6.72656 14.9077 9.09229 17.2734 12 17.2734ZM12 7.89844C14.2617 7.89844 16.1016 9.73834 16.1016 12C16.1016 14.2617 14.2617 16.1016 12 16.1016C9.73834 16.1016 7.89844 14.2617 7.89844 12C7.89844 9.73834 9.73834 7.89844 12 7.89844Z" fill="black"/>
<path d="M17.8594 7.89844C18.8286 7.89844 19.6172 7.10986 19.6172 6.14062C19.6172 5.17139 18.8286 4.38281 17.8594 4.38281C16.8901 4.38281 16.1016 5.17139 16.1016 6.14062C16.1016 7.10986 16.8901 7.89844 17.8594 7.89844ZM17.8594 5.55469C18.1824 5.55469 18.4453 5.8176 18.4453 6.14062C18.4453 6.46365 18.1824 6.72656 17.8594 6.72656C17.5363 6.72656 17.2734 6.46365 17.2734 6.14062C17.2734 5.8176 17.5363 5.55469 17.8594 5.55469Z" fill="black"/>
</svg>
