<svg width="32" height="26" viewBox="0 0 32 26" fill="none" xmlns="http://www.w3.org/2000/svg">
<path fill-rule="evenodd" clip-rule="evenodd" d="M4.68022 0.428417C4.46717 0.655806 4.20007 1.08669 4.08665 1.38595C3.77268 2.21426 3.64695 5.29422 3.87709 6.51683C4.07746 7.58172 4.07047 7.61592 3.34364 9.09036C2.93867 9.91224 2.49584 11.1246 2.35945 11.7845C2.22323 12.4444 1.84474 13.4576 1.51827 14.0361C-0.0642672 16.84 1.09695 20.2788 4.10687 21.7023C4.67985 21.9733 5.59161 22.5852 6.13297 23.062C8.24437 24.9214 10.9723 25.8477 13.9179 25.7054C16.7188 25.5703 18.9271 24.6727 21.0444 22.8089C22.6732 21.3753 24.2626 18.4685 24.5819 16.3398C24.7074 15.5023 24.7416 15.4655 26.1512 14.6464C27.8344 13.6685 29.8247 11.8746 30.4946 10.7314C31.0819 9.72933 31.658 7.90985 31.658 7.05746C31.658 5.97694 31.1466 5.15893 30.2127 4.74588C28.523 3.99845 24.9034 4.66886 22.7582 6.12676L22.0409 6.61408L21.1352 5.79992C19.9311 4.71739 18.4128 3.81481 16.9521 3.31353C15.4162 2.7865 12.3379 2.62915 10.9427 3.00617L9.9883 3.26426L8.92066 2.17014C8.33334 1.56849 7.53022 0.83724 7.13591 0.545512C6.23003 -0.125076 5.24272 -0.172135 4.68022 0.428417ZM4.79768 1.99092C4.58389 2.53981 4.80007 4.64992 5.16533 5.57989L5.36551 6.08981L6.4065 5.24183C6.97911 4.77547 7.64216 4.30525 7.88003 4.19698C8.1179 4.08853 8.31238 3.93246 8.31238 3.84992C8.31238 3.58558 5.65926 1.4911 5.32066 1.48816C5.13352 1.4865 4.91055 1.70103 4.79768 1.99092ZM12.3565 3.45783L11.5293 3.52547L10.4587 5.60875C9.86992 6.75452 8.82268 8.43687 8.13132 9.34735L6.87452 11.0029L7.95448 11.2154C8.61165 11.3446 9.40393 11.6766 9.97856 12.0632C11.0175 12.7624 11.1534 12.8141 11.017 12.4587C10.8366 11.9889 11.2284 9.28007 11.6322 8.20433C12.3368 6.32713 14.2344 4.67713 16.089 4.32933C16.4626 4.25911 16.7683 4.1365 16.7683 4.05672C16.7683 3.7229 13.8914 3.33246 12.3565 3.45783ZM26.1433 7.06463C25.0359 7.45783 24.2109 7.84422 23.594 8.25838C23.3879 8.3968 23.4423 8.68834 23.8958 9.87364C24.2001 10.669 24.5067 11.6714 24.5771 12.1012C24.6473 12.531 24.7613 12.8825 24.83 12.8825C24.8988 12.8825 25.2844 12.6646 25.687 12.3983C28.0501 10.8354 29.5793 8.2422 28.8207 7.08448C28.4401 6.5036 27.7372 6.49845 26.1433 7.06463ZM5.46312 7.79055C4.55283 8.70084 4.13831 10.4928 4.8383 10.4928C5.25044 10.4928 6.235 9.23283 6.46514 8.41077C6.84308 7.06077 6.44143 6.81224 5.46312 7.79055ZM5.47341 8.0865C5.41661 8.17842 5.41937 8.40599 5.47985 8.59202C5.56864 8.86518 5.55301 8.87841 5.39915 8.66077C5.24308 8.44018 5.17194 8.48724 5.00724 8.92051C4.86092 9.30544 4.86147 9.50415 5.00944 9.64955C5.2883 9.92327 6.1065 8.96775 6.1065 8.36849C6.1065 7.92621 5.68775 7.73963 5.47341 8.0865ZM13.58 9.59808C13.0006 9.93485 12.6725 10.974 12.9142 11.7065C13.4243 13.2523 15.7065 13.2339 16.2194 11.6801C16.474 10.9084 16.2249 10.0966 15.5991 9.65819C15.1534 9.34606 14.0692 9.31371 13.58 9.59808ZM13.7241 10.5757C13.5503 10.8411 13.4782 11.1812 13.5486 11.403C13.823 12.2681 15.1354 12.3371 15.5139 11.5062C16.0113 10.4144 14.3843 9.5683 13.7241 10.5757ZM3.1815 11.1584C2.87158 12.2747 2.91018 12.3841 3.48702 12.0233C3.76514 11.8492 4.01772 11.6913 4.04842 11.672C4.07911 11.6529 3.94125 11.369 3.7418 11.0413L3.37948 10.4453L3.1815 11.1584ZM14.1284 10.6203C13.9214 10.8273 14.0025 11.0442 14.2866 11.0442C14.4383 11.0442 14.5624 10.9665 14.5624 10.8712C14.5624 10.6394 14.2753 10.4735 14.1284 10.6203ZM5.00356 11.9885L4.36018 12.1861L5.00136 12.3964C5.69474 12.6238 5.91275 13.0948 5.53518 13.5497C5.219 13.9308 3.26404 14.9045 2.81533 14.9045C2.60375 14.9045 2.39952 14.7337 2.32084 14.4909C2.19695 14.1086 2.16165 14.133 1.85375 14.8126C0.944005 16.8207 2.01661 18.7681 4.0293 18.763C4.87948 18.7608 6.4054 18.0689 7.01165 17.4104C7.44897 16.9356 7.94474 16.7661 7.94474 17.0913C7.94474 17.342 6.73444 18.3507 5.95926 18.7462C4.81239 19.3312 3.70632 19.4102 2.72654 18.9768C2.26018 18.7705 1.87856 18.6707 1.87856 18.7552C1.87856 18.8398 2.24842 19.3201 2.70044 19.8229C5.09547 22.4869 9.52011 22.1082 11.2425 19.0922C13.117 15.8102 10.8648 12.0242 6.93371 11.8485C6.22599 11.8168 5.35742 11.8799 5.00356 11.9885ZM14.7462 14.354C14.2912 14.4319 13.5811 14.5871 13.1681 14.699L12.4172 14.9023L12.5025 16.3769C12.5821 17.7501 12.5477 17.9334 12.0036 19.0387C11.0556 20.9643 9.0861 22.251 7.06955 22.2624L6.19841 22.2674L6.8418 22.8075C8.57158 24.2598 10.9519 25.0696 13.4729 25.0635C16.9855 25.0552 20.264 23.3177 22.1662 20.4565C23.3074 18.74 23.3616 18.4196 22.6784 17.4264C20.9479 14.9111 18.0499 13.7887 14.7462 14.354Z" fill="#07AB04"/>
</svg>
