<svg width="24" height="24" viewBox="0 0 24 24" fill="none" xmlns="http://www.w3.org/2000/svg">
<path d="M2.3457 11.3302L7.23653 13.7677C7.4257 13.8611 7.64903 13.8544 7.82987 13.7486L12.1832 11.2177L9.5482 13.5527C9.41403 13.6719 9.33737 13.8419 9.33737 14.0211V19.7086C9.33737 20.3086 10.1032 20.5611 10.4624 20.0844L12.5765 17.2736L17.8049 20.2511C18.1715 20.4619 18.6415 20.2502 18.7265 19.8311L21.9874 3.58107C22.0849 3.09274 21.599 2.69441 21.1474 2.87607L2.39737 10.1886C1.89403 10.3852 1.86153 11.0894 2.3457 11.3302V11.3302ZM20.5374 4.45607L17.6715 18.7369L12.7174 15.9152C12.4474 15.7611 12.0999 15.8294 11.9082 16.0827L10.5874 17.8386V14.3019L17.7132 7.98857C18.2774 7.48941 17.629 6.60191 16.9849 6.98024L7.4932 12.4986L4.16653 10.8411L20.5374 4.45607Z" fill="black"/>
</svg>
