<svg width="24" height="24" viewBox="0 0 25 16" fill="none" xmlns="http://www.w3.org/2000/svg">
<path d="M12.6509 15.8124C16.2675 15.8124 14.978 13.5229 15.2571 12.8645C15.253 12.3729 15.2488 11.9 15.2655 11.6125C15.4946 11.677 16.0352 11.951 17.1519 13.0364C18.8758 14.776 19.3165 15.8124 20.7091 15.8124H23.2727C24.0852 15.8124 24.5081 15.476 24.7195 15.1937C24.9237 14.9208 25.1237 14.4416 24.9049 13.6958C24.3331 11.9 20.9977 8.79896 20.7904 8.47188C20.8216 8.41146 20.8716 8.33125 20.8977 8.28959H20.8956C21.5539 7.4198 24.0664 3.65526 24.4362 2.14903C24.4372 2.14694 24.4383 2.14382 24.4383 2.1407C24.6383 1.4532 24.4549 1.00737 24.2654 0.755294C23.9799 0.378215 23.5258 0.187592 22.9123 0.187592H20.3487C19.4904 0.187592 18.8394 0.619878 18.5102 1.40841C17.9592 2.80944 16.4113 5.69066 15.2509 6.71044C15.2155 5.26566 15.2394 4.16255 15.2582 3.34276C15.2957 1.74382 15.4165 0.187592 13.7571 0.187592H9.72802C8.68845 0.187592 7.69367 1.323 8.77074 2.6709C9.71239 3.85213 9.10928 4.51046 9.3124 7.78751C8.52074 6.93856 7.11242 4.64588 6.1166 1.7157C5.83744 0.923 5.41452 0.188633 4.22391 0.188633H1.6604C0.620827 0.188633 0 0.755293 0 1.70424C0 3.83547 4.71766 15.8124 12.6509 15.8124V15.8124ZM4.22391 1.75112C4.44995 1.75112 4.47287 1.75112 4.64057 2.22715C5.66035 5.23024 7.94783 9.67395 9.61865 9.67395C10.8738 9.67395 10.8738 8.3875 10.8738 7.90313L10.8728 4.04692C10.804 2.7709 10.3395 2.13549 10.0343 1.75007L13.6884 1.75424C13.6905 1.77195 13.6676 6.01982 13.6988 7.04897C13.6988 8.51042 14.8592 9.34791 16.6707 7.51459C18.5821 5.35733 19.9039 2.13236 19.9571 2.00111C20.0352 1.81362 20.1029 1.75007 20.3487 1.75007H22.9123H22.9227C22.9216 1.7532 22.9216 1.75632 22.9206 1.75945C22.6862 2.85319 20.3727 6.33857 19.5987 7.42085C19.5862 7.43751 19.5748 7.45522 19.5633 7.47293C19.2227 8.02917 18.9456 8.64375 19.6102 9.50832H19.6112C19.6717 9.58124 19.829 9.75207 20.0581 9.98957C20.7706 10.725 23.2143 13.2395 23.431 14.2395C23.2872 14.2624 23.131 14.2458 20.7091 14.251C20.1935 14.251 19.7904 13.4802 18.2519 11.9281C16.8686 10.5823 15.9707 10.0323 15.153 10.0323C13.5655 10.0323 13.6811 11.3208 13.6957 12.8791C13.7009 14.5687 13.6905 14.0343 13.7019 14.1406C13.6092 14.177 13.3436 14.2499 12.6509 14.2499C6.0416 14.2499 1.73748 3.75943 1.57186 1.75424C1.62915 1.74903 2.41768 1.75216 4.22391 1.75112V1.75112Z" fill="#272727"/>
</svg>
